<svg width="24px" height="24px" viewBox="0 0 24 24" version="1.1" xmlns="http://www.w3.org/2000/svg" xmlns:xlink="http://www.w3.org/1999/xlink">
    <!-- Generator: Sketch 53.2 (72643) - https://sketchapp.com -->
    <title>about</title>
    <desc>Created with Sketch.</desc>
    <g id="about" stroke="none" stroke-width="1" fill="none" fill-rule="evenodd">
        <g id="laptop-copy" transform="translate(0.000000, 2.000000)" fill="#486CFF" fill-rule="nonzero">
            <path d="M21,11.795 L21,2 C21,0.897 20.103,0 19,0 L5,0 C3.897,0 3,0.897 3,2 L3,11.795 L0.678,17.212 C0.413,17.832 0.476,18.538 0.847,19.101 C1.218,19.664 1.842,20 2.517,20 L21.484,20 C22.158,20 22.782,19.664 23.154,19.101 C23.525,18.538 23.588,17.832 23.322,17.212 L21,11.795 Z M19,11 L5,11 L5,2 L19,2 L19,11 Z" id="Shape"></path>
        </g>
    </g>
</svg>