<svg width="24px" height="24px" viewBox="0 0 24 24" version="1.1" xmlns="http://www.w3.org/2000/svg" xmlns:xlink="http://www.w3.org/1999/xlink">
    <!-- Generator: Sketch 53.2 (72643) - https://sketchapp.com -->
    <title>community</title>
    <desc>Created with Sketch.</desc>
    <g id="community" stroke="none" stroke-width="1" fill="none" fill-rule="evenodd">
        <g id="users-wm-copy" transform="translate(0.000000, 2.500000)" fill="#486CFF" fill-rule="nonzero">
            <path d="M23.371,12.749 L19.629,11.249 C19.2500254,11.0975967 19.001075,10.7310974 19,10.323 L19,9.445 C20.2344135,8.73660134 20.9968908,7.42323424 21,6 L21,4.172 C21.0350064,2.06953771 19.4796496,0.278743 17.393,0.019 C16.269164,-0.0919537075 15.1507914,0.2773164 14.3139802,1.03564679 C13.477169,1.79397719 12.9999004,2.87070023 13,4 L13,6 C13.0031092,7.42323424 13.7655865,8.73660134 15,9.445 L15,10.323 C14.6707586,11.1476934 14.1163411,11.8632385 13.4,12.388 C13.332,12.432 13.266,12.481 13.2,12.526 L14.111,12.891 C15.2536058,13.3429304 16.0030619,14.448269 16,15.677 L16,18 C15.9966856,18.3414397 15.9344378,18.679743 15.816,19 L23,19 C23.5522847,19 24,18.5522847 24,18 L24,13.677 C23.9997412,13.2681728 23.7506505,12.9006748 23.371,12.749 Z" id="Path"></path>
            <path d="M13.371,14.749 L9.629,13.249 C9.25002543,13.0975967 9.00107504,12.7310974 9,12.323 L9,11.872 C10.1569176,11.7685253 11.2714602,11.385916 12.248,10.757 C12.464786,10.5968196 12.6067163,10.3550218 12.6408926,10.0876533 C12.675069,9.82028477 12.598524,9.55056044 12.429,9.341 C11.6254163,8.41246955 11.1265695,7.25943183 11,6.038 C11.0595992,4.6104458 10.329597,3.26570482 9.1,2.538 C7.85276734,1.80304915 6.30790339,1.79047497 5.04887273,2.50502647 C3.78984206,3.21957797 3.00852136,4.55235728 3,6 C2.88437207,7.23589863 2.384661,8.40457212 1.571,9.342 C1.40152519,9.55139561 1.32500215,9.82096334 1.35918208,10.0881711 C1.39336201,10.3553788 1.53527455,10.5970053 1.752,10.757 C2.72853979,11.385916 3.84308244,11.7685253 5,11.872 L5,12.323 C4.99974123,12.7318272 4.75065048,13.0993252 4.371,13.251 L0.629,14.751 C0.250025427,14.9024033 0.00107503532,15.2689026 0,15.677 L0,18 C-4.33869274e-17,18.5522847 0.44771525,19 1,19 L13,19 C13.5522847,19 14,18.5522847 14,18 L14,15.677 C13.9997412,15.2681728 13.7506505,14.9006748 13.371,14.749 Z" id="Path"></path>
        </g>
    </g>
</svg>