<svg version="1.1" xmlns="http://www.w3.org/2000/svg" xmlns:xlink="http://www.w3.org/1999/xlink" x="0px" y="0px"
	 viewBox="0 0 178.3484 77.1253" style="enable-background:new 0 0 178.3484 77.1253;" xml:space="preserve">
<style type="text/css">
	.st0{fill:url(#SVGID_1_);}
	.st1{opacity:0.2;fill:#FFFFFF;}
	.st2{fill:url(#SVGID_2_);}
	.st3{fill:#FFFFFF;}
	.st4{opacity:0.4;fill:#FFFFFF;}
	.st5{fill:#A5B8FF;}
	.st6{fill:#6487FF;}
	.st7{fill:#849EFF;}
	.st8{opacity:0.15;fill:#3C4ED9;}
	.st9{opacity:0.25;}
	.st10{fill:#2234BB;}
	.st11{opacity:0.5;fill:#2234BB;}
	.st12{opacity:0.2;fill:#6487FF;}
	.st13{opacity:0.5;}
	.st14{fill:none;stroke:#CBDAFF;stroke-width:2;stroke-miterlimit:10;}
	.st15{fill:#00054D;}
	.st16{fill:#4F74FC;}
	.st17{clip-path:url(#SVGID_4_);}
	.st18{fill:#486CFF;}
	.st19{fill:#CBDAFF;}
	.st20{fill:none;stroke:#FFFFFF;stroke-width:6;stroke-miterlimit:10;}
	.st21{fill:none;stroke:#486CFF;stroke-width:6;stroke-miterlimit:10;}
	.st22{fill:#3955E0;}
	.st23{fill:#3A45DC;}
	.st24{fill:#3950E0;}
	.st25{fill:#395AE0;}
	.st26{fill:#3A47DE;}
	.st27{fill:url(#SVGID_5_);}
	.st28{fill:none;stroke:#FFFFFF;stroke-width:2;stroke-miterlimit:10;}
	.st29{fill:#000A44;}
	.st30{fill:url(#SVGID_6_);}
	.st31{fill:#3C4ED9;}
	.st32{opacity:0.4;fill:#4F74FC;}
	.st33{clip-path:url(#SVGID_8_);fill:#CBDAFF;}
	.st34{clip-path:url(#SVGID_10_);fill:#FFFFFF;}
	.st35{fill:url(#SVGID_11_);}
	.st36{fill:url(#SVGID_12_);}
	.st37{fill:url(#SVGID_13_);}
	.st38{clip-path:url(#SVGID_15_);fill:#CBDAFF;}
	.st39{fill:url(#SVGID_16_);}
	.st40{fill:url(#SVGID_17_);}
	.st41{clip-path:url(#SVGID_19_);fill:#CBDAFF;}
	.st42{fill:url(#SVGID_20_);}
	.st43{opacity:0.15;fill:#6487FF;}
	.st44{fill:url(#SVGID_21_);}
	.st45{fill:url(#SVGID_22_);}
	.st46{clip-path:url(#SVGID_24_);fill:#CBDAFF;}
	.st47{fill:url(#SVGID_25_);}
	.st48{fill:url(#SVGID_26_);}
	.st49{fill:url(#SVGID_27_);}
	.st50{fill:url(#SVGID_28_);}
	.st51{fill:none;stroke:#486CFF;stroke-width:4;stroke-miterlimit:10;}
</style>
<g id="Layer_1">
	<g>
		<linearGradient id="SVGID_1_" gradientUnits="userSpaceOnUse" x1="-5.9648" y1="24.5713" x2="52.0737" y2="102.5467">
			<stop  offset="0" style="stop-color:#5883FF"/>
			<stop  offset="1" style="stop-color:#344FD4"/>
		</linearGradient>
		<path class="st0" d="M0,62.9209l18.071,0l0-36.393C6.6093,26.5279,0,40.4576,0,62.9209z"/>
		<linearGradient id="SVGID_2_" gradientUnits="userSpaceOnUse" x1="8.3178" y1="13.9405" x2="66.3563" y2="91.9159">
			<stop  offset="0" style="stop-color:#5883FF"/>
			<stop  offset="1" style="stop-color:#344FD4"/>
		</linearGradient>
		<polygon class="st2" points="51.7217,56.5363 49.248,52.0743 46.7744,47.6122 44.3008,43.1503 23.3573,5.3719 23.3573,43.1503 
			23.3573,47.6122 23.3573,52.0743 23.3573,56.5363 23.3573,62.9209 55.2611,62.9209 		"/>
		<linearGradient id="SVGID_4_" gradientUnits="userSpaceOnUse" x1="26.7555" y1="0.217" x2="84.794" y2="78.1924">
			<stop  offset="0" style="stop-color:#5883FF"/>
			<stop  offset="1" style="stop-color:#344FD4"/>
		</linearGradient>
		<polygon style="fill:url(#SVGID_4_);" points="33.8291,0 23.3574,0 23.3574,5.3719 		"/>
		<linearGradient id="SVGID_5_" gradientUnits="userSpaceOnUse" x1="-7.6902" y1="25.8556" x2="50.3483" y2="103.8309">
			<stop  offset="0" style="stop-color:#5883FF"/>
			<stop  offset="1" style="stop-color:#344FD4"/>
		</linearGradient>
		<path class="st27" d="M48.71,77.1253l2.6625-5.4165l-28.6385-0.0001V71.655c-2.4297,0-4.3995-1.9697-4.3995-4.3994H0.0344
			c0,4.4714,5.3983,9.8697,9.8698,9.8697"/>
	</g>
	<g>
		<path class="st29" d="M82.6062,51.4982c0.2129,2.8164,1.1201,4.8643,2.7197,6.1445c1.6006,1.2793,3.957,1.9199,7.0723,1.9199
			c1.4932,0,2.752-0.1602,3.7764-0.4805c1.0234-0.3203,1.8555-0.7461,2.4951-1.2803c0.6406-0.5322,1.0986-1.1611,1.377-1.8877
			c0.2764-0.7246,0.415-1.5137,0.415-2.3682c0-1.1934-0.4473-2.3135-1.3438-3.3594c-0.8955-1.0449-2.5391-1.8027-4.9277-2.2725
			l-5.9521-1.0879c-2.3467-0.4258-4.416-0.9814-6.208-1.6641c-1.792-0.6816-3.2959-1.5684-4.5117-2.6562s-2.1445-2.4209-2.7842-4
			c-0.6396-1.5781-0.96-3.4561-0.96-5.6318s0.4365-4.0957,1.3115-5.7598c0.874-1.6641,2.0908-3.0498,3.6484-4.1602
			c1.5566-1.1084,3.4238-1.9521,5.5996-2.5273c2.1768-0.5762,4.5654-0.8643,7.168-0.8643c3.3281,0,6.1016,0.3838,8.3203,1.1523
			c2.2178,0.7676,4.0098,1.7812,5.376,3.04c1.3652,1.2588,2.3779,2.7197,3.04,4.3838c0.6611,1.6641,1.0977,3.3916,1.3125,5.1836
			l-9.0244,1.1523c-0.4697-2.5176-1.376-4.3301-2.7197-5.4404c-1.3447-1.1084-3.3818-1.6641-6.1123-1.6641
			c-1.6221,0-2.9551,0.1396-4,0.416c-1.0459,0.2783-1.8877,0.6406-2.5283,1.0879c-0.6396,0.4482-1.0879,0.9717-1.3438,1.5684
			c-0.2559,0.5977-0.3838,1.2158-0.3838,1.8564c0,1.707,0.4795,2.9863,1.4395,3.8389c0.9609,0.8545,2.5928,1.5156,4.8965,1.9844
			l6.2725,1.2158c4.9482,0.9824,8.5752,2.5713,10.8799,4.7686c2.3037,2.1973,3.4561,5.3652,3.4561,9.5039
			c0,2.0059-0.374,3.8506-1.1201,5.5361c-0.7471,1.6855-1.8564,3.1572-3.3281,4.416c-1.4727,1.2588-3.3184,2.2393-5.5361,2.9434
			c-2.2188,0.7041-4.8223,1.0566-7.8076,1.0566c-6.2305,0-10.998-1.333-14.3047-4c-3.3066-2.666-5.0879-6.6885-5.3438-12.0645
			H82.6062z"/>
		<path class="st29" d="M136.2371,62.1867c-1.3223,1.4932-2.8057,2.71-4.4473,3.6475c-1.6436,0.9385-3.7666,1.4082-6.3682,1.4082
			c-1.4941,0-2.9121-0.1924-4.2559-0.5762c-1.3447-0.3838-2.5186-0.9805-3.5205-1.792c-1.0029-0.8096-1.8027-1.8447-2.3994-3.1035
			c-0.5986-1.2588-0.8965-2.7627-0.8965-4.5127c0-2.3037,0.5117-4.1807,1.5361-5.6318c1.0244-1.4502,2.3682-2.5811,4.0322-3.3916
			s3.5293-1.3857,5.5996-1.7285c2.0693-0.3408,4.1699-0.5537,6.3037-0.6396l4.2881-0.1924v-1.6641
			c0-2.0479-0.5654-3.4561-1.6953-4.2236c-1.1318-0.7676-2.4648-1.1523-4-1.1523c-3.542,0-5.5684,1.3447-6.0801,4.0322
			l-8.1924-0.7676c0.5967-3.498,2.1328-6.0264,4.6084-7.584c2.4736-1.5566,5.8018-2.3359,9.9834-2.3359
			c2.5605,0,4.7363,0.3096,6.5283,0.9277c1.792,0.6191,3.2324,1.5039,4.3203,2.6562c1.0879,1.1514,1.877,2.5498,2.3672,4.1914
			c0.4902,1.6436,0.7363,3.4883,0.7363,5.5361v21.1201h-8.4482V62.1867z M136.0457,51.4982l-3.9678,0.1924
			c-1.8789,0.0859-3.3926,0.2773-4.5449,0.5762c-1.1514,0.2988-2.0371,0.6719-2.6553,1.1191
			c-0.6191,0.4482-1.0352,0.9717-1.248,1.5684c-0.2139,0.5977-0.3203,1.2588-0.3203,1.9844c0,1.1094,0.3838,1.9834,1.1523,2.624
			c0.7676,0.6396,1.834,0.96,3.2002,0.96c2.3037,0,4.1807-0.5332,5.6318-1.6006c0.8096-0.5967,1.4717-1.3535,1.9834-2.2715
			c0.5127-0.917,0.7686-2.0586,0.7686-3.4238V51.4982z"/>
		<path class="st29" d="M152.2371,20.715h9.2158v8.0635h-9.2158V20.715z M152.365,33.0021h8.96v33.4082h-8.96V33.0021z"/>
		<path class="st29" d="M169.3885,20.715h8.96v45.6953h-8.96V20.715z"/>
	</g>
</g>
<g id="Layer_2">
</g>
<g id="Layer_3">
</g>
</svg>
