<svg width="108px" height="48px" viewBox="0 0 108 48" version="1.1" xmlns="http://www.w3.org/2000/svg" xmlns:xlink="http://www.w3.org/1999/xlink">
    <!-- Generator: Sketch 53.2 (72643) - https://sketchapp.com -->
    <title>Artboard Copy 3</title>
    <desc>Created with Sketch.</desc>
    <defs>
        <polygon id="path-1" points="0 0.242487151 10.9030525 0.242487151 10.9030525 22.2008782 0 22.2008782"></polygon>
        <polygon id="path-3" points="0 46.5337006 107.606615 46.5337006 107.606615 0.000181005587 0 0.000181005587"></polygon>
    </defs>
    <g id="Artboard-Copy-3" stroke="none" stroke-width="1" fill="none" fill-rule="evenodd">
        <g id="Group-15-Copy">
            <g id="Group-17" transform="translate(0.000000, 0.148427)">
                <g id="Group-3" transform="translate(0.000000, 15.762751)">
                    <mask id="mask-2" fill="white">
                        <use xlink:href="#path-1"></use>
                    </mask>
                    <g id="Clip-2"></g>
                    <path d="M-0.000120670391,22.2008782 L10.9030525,22.2008782 L10.9030525,0.242487151 C3.9874324,0.242487151 -0.000120670391,8.64717989 -0.000120670391,22.2008782" id="Fill-1" fill="#000A44" mask="url(#mask-2)"></path>
                </g>
                <polygon id="Fill-4" fill="#000A44" points="31.2062682 34.1113475 29.7135754 31.4191911 28.221486 28.7270346 26.7287933 26.0348782 14.0927933 3.24144804 14.0927933 26.0348782 14.0927933 28.7270346 14.0927933 31.4191911 14.0927933 34.1113475 14.0927933 37.9637497 33.3421341 37.9637497"></polygon>
                <polygon id="Fill-6" fill="#000A44" points="20.410733 0.000181005587 14.0924313 0.000181005587 14.0924313 3.24138771"></polygon>
                <path d="M29.3890927,46.5337006 L30.995819,43.2659464 L13.7164223,43.265343 L13.7164223,43.232762 C12.2508804,43.232762 11.0622771,42.044762 11.0622771,40.5786168 L0.0203329609,40.5786168 C0.0203329609,43.2768067 3.27783017,46.5337006 5.97541676,46.5337006" id="Fill-8" fill="#000A44"></path>
                <mask id="mask-4" fill="white">
                    <use xlink:href="#path-3"></use>
                </mask>
                <g id="Clip-15"></g>
            </g>
            <path d="M48.803,35.2428533 L51.63,35.2428533 C52.2093362,35.2428533 52.6878314,35.2978527 53.0655,35.4078533 C53.4431686,35.5178538 53.7419989,35.6681856 53.962,35.8588533 C54.1820011,36.0495209 54.3341662,36.2731853 54.4185,36.5298533 C54.5028338,36.7865212 54.545,37.0651851 54.545,37.3658533 C54.545,37.6738548 54.4790007,37.9635186 54.347,38.2348533 C54.2149993,38.506188 53.9656685,38.7371856 53.599,38.9278533 C53.8336678,39.0525206 54.0261659,39.1826859 54.1765,39.3183533 C54.3268341,39.4540206 54.4441662,39.5988525 54.5285,39.7528533 C54.6128338,39.906854 54.6714998,40.0645191 54.7045,40.2258533 C54.7375002,40.3871874 54.754,40.5485191 54.754,40.7098533 C54.754,41.0398549 54.7045005,41.3515185 54.6055,41.6448533 C54.5064995,41.9381881 54.3415012,42.1911855 54.1105,42.4038533 C53.8794988,42.616521 53.5770019,42.785186 53.203,42.9098533 C52.8289981,43.0345206 52.3670027,43.0968533 51.817,43.0968533 L48.803,43.0968533 L48.803,35.2428533 Z M51.817,38.3558533 C52.2496688,38.3558533 52.5466659,38.2751874 52.708,38.1138533 C52.8693341,37.9525191 52.95,37.7215214 52.95,37.4208533 C52.95,37.098185 52.845501,36.8690206 52.6365,36.7333533 C52.427499,36.5976859 52.0736692,36.5298533 51.575,36.5298533 L50.387,36.5298533 L50.387,38.3558533 L51.817,38.3558533 Z M51.762,41.8098533 C52.0333347,41.8098533 52.2588324,41.7841869 52.4385,41.7328533 C52.6181676,41.6815197 52.7629994,41.6063538 52.873,41.5073533 C52.9830005,41.4083528 53.0599998,41.2928539 53.104,41.1608533 C53.1480002,41.0288526 53.17,40.8785208 53.17,40.7098533 C53.17,40.3725182 53.0783342,40.1158541 52.895,39.9398533 C52.7116658,39.7638524 52.3890023,39.6758533 51.927,39.6758533 L50.387,39.6758533 L50.387,41.8098533 L51.762,41.8098533 Z M57.449,39.8958533 L54.732,35.2428533 L56.558,35.2428533 L58.252,38.4218533 L60.001,35.2428533 L61.739,35.2428533 L59.088,39.8958533 L59.088,43.0968533 L57.449,43.0968533 L57.449,39.8958533 Z M68.9,43.2288533 C68.1153294,43.2288533 67.4058365,43.058355 66.7715,42.7173533 C66.1371635,42.3763516 65.6385018,41.9033563 65.2755,41.2983533 C64.9124982,40.6933502 64.731,40.0095237 64.731,39.2468533 C64.731,38.4841828 64.9124982,37.8003563 65.2755,37.1953533 C65.6385018,36.5903502 66.1371635,36.117355 66.7715,35.7763533 C67.4058365,35.4353516 68.118996,35.2648533 68.911,35.2648533 C69.5783367,35.2648533 70.1814973,35.3821854 70.7205,35.6168533 C71.2595027,35.8515211 71.7123315,36.1888511 72.079,36.6288533 L70.935,37.6848533 C70.4143307,37.0835169 69.7690039,36.7828533 68.999,36.7828533 C68.5223309,36.7828533 68.0970019,36.8873522 67.723,37.0963533 C67.3489981,37.3053543 67.057501,37.5968514 66.8485,37.9708533 C66.639499,38.3448551 66.535,38.7701842 66.535,39.2468533 C66.535,39.7235223 66.639499,40.1488514 66.8485,40.5228533 C67.057501,40.8968551 67.3489981,41.1883522 67.723,41.3973533 C68.0970019,41.6063543 68.5223309,41.7108533 68.999,41.7108533 C69.7690039,41.7108533 70.4143307,41.406523 70.935,40.7978533 L72.079,41.8538533 C71.7123315,42.3011888 71.2576694,42.6421854 70.715,42.8768533 C70.1723306,43.1115211 69.5673367,43.2288533 68.9,43.2288533 Z M76.842,43.2288533 C76.0426627,43.2288533 75.3221699,43.0565217 74.6805,42.7118533 C74.0388301,42.3671849 73.5365018,41.8923563 73.1735,41.2873533 C72.8104982,40.6823502 72.629,40.0021904 72.629,39.2468533 C72.629,38.4915162 72.8104982,37.8113563 73.1735,37.2063533 C73.5365018,36.6013502 74.0388301,36.1265217 74.6805,35.7818533 C75.3221699,35.4371849 76.0426627,35.2648533 76.842,35.2648533 C77.6413373,35.2648533 78.3599968,35.4371849 78.998,35.7818533 C79.6360032,36.1265217 80.1383315,36.6013502 80.505,37.2063533 C80.8716685,37.8113563 81.055,38.4915162 81.055,39.2468533 C81.055,40.0021904 80.8716685,40.6823502 80.505,41.2873533 C80.1383315,41.8923563 79.6360032,42.3671849 78.998,42.7118533 C78.3599968,43.0565217 77.6413373,43.2288533 76.842,43.2288533 Z M76.842,41.7108533 C77.2966689,41.7108533 77.7073315,41.6063543 78.074,41.3973533 C78.4406685,41.1883522 78.728499,40.8968551 78.9375,40.5228533 C79.146501,40.1488514 79.251,39.7235223 79.251,39.2468533 C79.251,38.7701842 79.146501,38.3448551 78.9375,37.9708533 C78.728499,37.5968514 78.4406685,37.3053543 78.074,37.0963533 C77.7073315,36.8873522 77.2966689,36.7828533 76.842,36.7828533 C76.3873311,36.7828533 75.9766685,36.8873522 75.61,37.0963533 C75.2433315,37.3053543 74.955501,37.5968514 74.7465,37.9708533 C74.537499,38.3448551 74.433,38.7701842 74.433,39.2468533 C74.433,39.7235223 74.537499,40.1488514 74.7465,40.5228533 C74.955501,40.8968551 75.2433315,41.1883522 75.61,41.3973533 C75.9766685,41.6063543 76.3873311,41.7108533 76.842,41.7108533 Z M82.397,35.3968533 L85.895,35.3968533 C86.7310042,35.3968533 87.4698301,35.5563517 88.1115,35.8753533 C88.7531699,36.1943549 89.2518316,36.643517 89.6075,37.2228533 C89.9631684,37.8021895 90.141,38.4768494 90.141,39.2468533 C90.141,40.0168571 89.9631684,40.691517 89.6075,41.2708533 C89.2518316,41.8501895 88.7531699,42.2993517 88.1115,42.6183533 C87.4698301,42.9373549 86.7310042,43.0968533 85.895,43.0968533 L82.397,43.0968533 L82.397,35.3968533 Z M85.807,41.6338533 C86.5770038,41.6338533 87.1911644,41.4193554 87.6495,40.9903533 C88.1078356,40.5613511 88.337,39.9801903 88.337,39.2468533 C88.337,38.5135163 88.1078356,37.9323554 87.6495,37.5033533 C87.1911644,37.0743511 86.5770038,36.8598533 85.807,36.8598533 L84.179,36.8598533 L84.179,41.6338533 L85.807,41.6338533 Z M97.445,41.6668533 L97.445,43.0968533 L91.483,43.0968533 L91.483,35.3968533 L97.302,35.3968533 L97.302,36.8268533 L93.254,36.8268533 L93.254,38.4988533 L96.829,38.4988533 L96.829,39.8848533 L93.254,39.8848533 L93.254,41.6668533 L97.445,41.6668533 Z M103.77,43.0968533 L102.285,40.9518533 L100.646,40.9518533 L100.646,43.0968533 L98.864,43.0968533 L98.864,35.3968533 L102.197,35.3968533 C102.879003,35.3968533 103.471164,35.5105188 103.9735,35.7378533 C104.475836,35.9651877 104.862665,36.2878512 105.134,36.7058533 C105.405335,37.1238554 105.541,37.6188504 105.541,38.1908533 C105.541,38.7628561 105.403501,39.2560179 105.1285,39.6703533 C104.853499,40.0846887 104.463003,40.4018522 103.957,40.6218533 L105.684,43.0968533 L103.77,43.0968533 Z M103.737,38.1908533 C103.737,37.7581844 103.597668,37.4263544 103.319,37.1953533 C103.040332,36.9643521 102.633336,36.8488533 102.098,36.8488533 L100.646,36.8488533 L100.646,39.5328533 L102.098,39.5328533 C102.633336,39.5328533 103.040332,39.4155211 103.319,39.1808533 C103.597668,38.9461854 103.737,38.6161887 103.737,38.1908533 Z" id="BYCODER" fill="#000A44" fill-rule="nonzero"></path>
            <path d="M54.825,29.3 C53.4416597,29.3 52.1041731,29.1125019 50.8125,28.7375 C49.5208269,28.3624981 48.4833372,27.875003 47.7,27.275 L49.075,24.225 C49.8250038,24.7750027 50.7166615,25.216665 51.75,25.55 C52.7833385,25.883335 53.8166615,26.05 54.85,26.05 C56.0000057,26.05 56.8499973,25.8791684 57.4,25.5375 C57.9500028,25.1958316 58.225,24.7416695 58.225,24.175 C58.225,23.7583313 58.0625016,23.4125014 57.7375,23.1375 C57.4124984,22.8624986 56.9958359,22.6416675 56.4875,22.475 C55.9791641,22.3083325 55.291671,22.125001 54.425,21.925 C53.09166,21.6083318 52.0000043,21.2916683 51.15,20.975 C50.2999958,20.6583317 49.5708364,20.1500035 48.9625,19.45 C48.3541636,18.7499965 48.05,17.8166725 48.05,16.65 C48.05,15.6333282 48.3249973,14.7125041 48.875,13.8875 C49.4250027,13.0624959 50.2541611,12.4083357 51.3625,11.925 C52.4708389,11.4416642 53.824992,11.2 55.425,11.2 C56.5416723,11.2 57.633328,11.333332 58.7,11.6 C59.766672,11.866668 60.699996,12.2499975 61.5,12.75 L60.25,15.825 C58.6333252,14.9083287 57.0166747,14.45 55.4,14.45 C54.266661,14.45 53.4291694,14.6333315 52.8875,15 C52.3458306,15.3666685 52.075,15.849997 52.075,16.45 C52.075,17.050003 52.3874969,17.4958319 53.0125,17.7875 C53.6375031,18.0791681 54.5916603,18.3666653 55.875,18.65 C57.20834,18.9666682 58.2999958,19.2833317 59.15,19.6 C60.0000043,19.9166683 60.7291636,20.4166632 61.3375,21.1 C61.9458364,21.7833368 62.25,22.7083275 62.25,23.875 C62.25,24.875005 61.9708361,25.7874959 61.4125,26.6125 C60.8541639,27.4375041 60.0166722,28.0916643 58.9,28.575 C57.7833277,29.0583358 56.425008,29.3 54.825,29.3 Z M76.55,25.25 L68.425,25.25 L66.875,29 L62.725,29 L70.525,11.5 L74.525,11.5 L82.35,29 L78.1,29 L76.55,25.25 Z M75.275,22.175 L72.5,15.475 L69.725,22.175 L75.275,22.175 Z M84.175,11.5 L88.225,11.5 L88.225,29 L84.175,29 L84.175,11.5 Z M92.375,11.5 L96.425,11.5 L96.425,25.7 L105.2,25.7 L105.2,29 L92.375,29 L92.375,11.5 Z" id="SAIL" fill="#000A44" fill-rule="nonzero"></path>
        </g>
    </g>
</svg>